<mxfile host="app.diagrams.net" modified="2022-05-14T05:44:04.473Z" agent="5.0 (Windows NT 10.0; Win64; x64) AppleWebKit/537.36 (KHTML, like Gecko) Chrome/92.0.4515.159 Safari/537.36" etag="aK5gH5rdhoF_6uJp3RoP" version="18.0.3" type="github">
  <diagram id="UC7k_6UZI5-NDLDnfBAu" name="Page-1">
    <mxGraphModel dx="1422" dy="761" grid="1" gridSize="10" guides="1" tooltips="1" connect="1" arrows="1" fold="1" page="1" pageScale="1" pageWidth="827" pageHeight="1169" math="0" shadow="0">
      <root>
        <mxCell id="0" />
        <mxCell id="1" parent="0" />
        <mxCell id="JF9083P7Rvr2tmet-11t-1" value="A" style="ellipse;whiteSpace=wrap;html=1;aspect=fixed;" vertex="1" parent="1">
          <mxGeometry x="190" y="150" width="40" height="40" as="geometry" />
        </mxCell>
        <mxCell id="JF9083P7Rvr2tmet-11t-3" value="C" style="ellipse;whiteSpace=wrap;html=1;aspect=fixed;" vertex="1" parent="1">
          <mxGeometry x="190" y="370" width="40" height="40" as="geometry" />
        </mxCell>
        <mxCell id="JF9083P7Rvr2tmet-11t-4" value="B" style="ellipse;whiteSpace=wrap;html=1;aspect=fixed;" vertex="1" parent="1">
          <mxGeometry x="190" y="260" width="40" height="40" as="geometry" />
        </mxCell>
        <mxCell id="JF9083P7Rvr2tmet-11t-7" style="edgeStyle=orthogonalEdgeStyle;rounded=0;orthogonalLoop=1;jettySize=auto;html=1;entryX=0;entryY=0.5;entryDx=0;entryDy=0;" edge="1" parent="1" source="JF9083P7Rvr2tmet-11t-6" target="JF9083P7Rvr2tmet-11t-1">
          <mxGeometry relative="1" as="geometry">
            <Array as="points">
              <mxPoint x="120" y="280" />
              <mxPoint x="120" y="170" />
            </Array>
          </mxGeometry>
        </mxCell>
        <mxCell id="JF9083P7Rvr2tmet-11t-8" style="edgeStyle=orthogonalEdgeStyle;rounded=0;orthogonalLoop=1;jettySize=auto;html=1;" edge="1" parent="1" source="JF9083P7Rvr2tmet-11t-6" target="JF9083P7Rvr2tmet-11t-4">
          <mxGeometry relative="1" as="geometry" />
        </mxCell>
        <mxCell id="JF9083P7Rvr2tmet-11t-9" style="edgeStyle=orthogonalEdgeStyle;rounded=0;orthogonalLoop=1;jettySize=auto;html=1;" edge="1" parent="1" source="JF9083P7Rvr2tmet-11t-6" target="JF9083P7Rvr2tmet-11t-3">
          <mxGeometry relative="1" as="geometry">
            <Array as="points">
              <mxPoint x="120" y="280" />
              <mxPoint x="120" y="390" />
            </Array>
          </mxGeometry>
        </mxCell>
        <mxCell id="JF9083P7Rvr2tmet-11t-6" value="开始" style="ellipse;whiteSpace=wrap;html=1;aspect=fixed;" vertex="1" parent="1">
          <mxGeometry x="40" y="260" width="40" height="40" as="geometry" />
        </mxCell>
        <mxCell id="JF9083P7Rvr2tmet-11t-10" value="6" style="text;html=1;strokeColor=none;fillColor=none;align=center;verticalAlign=middle;whiteSpace=wrap;rounded=0;" vertex="1" parent="1">
          <mxGeometry x="120" y="140" width="60" height="30" as="geometry" />
        </mxCell>
        <mxCell id="JF9083P7Rvr2tmet-11t-11" style="edgeStyle=orthogonalEdgeStyle;rounded=0;orthogonalLoop=1;jettySize=auto;html=1;exitX=0.5;exitY=1;exitDx=0;exitDy=0;" edge="1" parent="1" source="JF9083P7Rvr2tmet-11t-10" target="JF9083P7Rvr2tmet-11t-10">
          <mxGeometry relative="1" as="geometry" />
        </mxCell>
        <mxCell id="JF9083P7Rvr2tmet-11t-12" value="4" style="text;html=1;strokeColor=none;fillColor=none;align=center;verticalAlign=middle;whiteSpace=wrap;rounded=0;" vertex="1" parent="1">
          <mxGeometry x="120" y="250" width="60" height="30" as="geometry" />
        </mxCell>
        <mxCell id="JF9083P7Rvr2tmet-11t-13" value="5" style="text;html=1;strokeColor=none;fillColor=none;align=center;verticalAlign=middle;whiteSpace=wrap;rounded=0;" vertex="1" parent="1">
          <mxGeometry x="120" y="360" width="60" height="30" as="geometry" />
        </mxCell>
      </root>
    </mxGraphModel>
  </diagram>
</mxfile>
